<svg width="200" height="200" viewBox="0 0 200 200" xmlns="http://www.w3.org/2000/svg">
  <defs>
    <linearGradient id="faceGradient" x1="0%" y1="0%" x2="100%" y2="100%">
      <stop offset="0%" style="stop-color:#2d3748;stop-opacity:1" />
      <stop offset="100%" style="stop-color:#1a202c;stop-opacity:1" />
    </linearGradient>
    <filter id="neonGlow">
      <feGaussianBlur stdDeviation="2" result="coloredBlur"/>
      <feMerge> 
        <feMergeNode in="coloredBlur"/>
        <feMergeNode in="SourceGraphic"/>
      </feMerge>
    </filter>
  </defs>
  
  <!-- Background -->
  <rect width="200" height="200" fill="#0a0a0a"/>
  
  <!-- Face -->
  <ellipse cx="100" cy="120" rx="60" ry="80" fill="url(#faceGradient)"/>
  
  <!-- Cyberpunk Goggles -->
  <ellipse cx="85" cy="100" rx="25" ry="15" fill="#1a1a2e" stroke="#ff006e" stroke-width="2" filter="url(#neonGlow)"/>
  <ellipse cx="115" cy="100" rx="25" ry="15" fill="#1a1a2e" stroke="#ff006e" stroke-width="2" filter="url(#neonGlow)"/>
  
  <!-- Goggle Lenses -->
  <ellipse cx="85" cy="100" rx="20" ry="12" fill="#3a86ff" opacity="0.3"/>
  <ellipse cx="115" cy="100" rx="20" ry="12" fill="#3a86ff" opacity="0.3"/>
  
  <!-- Hair -->
  <path d="M50 80 Q100 40 150 80 Q160 70 150 60 Q100 20 50 60 Q40 70 50 80" fill="#2d3748"/>
  
  <!-- Neon Hair Highlights -->
  <path d="M60 75 Q100 45 140 75" stroke="#ff006e" stroke-width="3" fill="none" filter="url(#neonGlow)"/>
  <path d="M55 70 Q100 35 145 70" stroke="#8338ec" stroke-width="2" fill="none" filter="url(#neonGlow)"/>
  
  <!-- Nose -->
  <ellipse cx="100" cy="125" rx="4" ry="8" fill="#2d3748"/>
  
  <!-- Mouth -->
  <path d="M90 150 Q100 160 110 150" stroke="#ff006e" stroke-width="2" fill="none" filter="url(#neonGlow)"/>
  
  <!-- Circuit Pattern on Face -->
  <path d="M70 110 Q80 105 90 110 Q100 115 110 110" stroke="#3a86ff" stroke-width="1" fill="none" opacity="0.6"/>
  <path d="M75 130 Q85 125 95 130 Q105 135 115 130" stroke="#3a86ff" stroke-width="1" fill="none" opacity="0.6"/>
  
  <!-- Data Points -->
  <circle cx="60" cy="90" r="2" fill="#ff006e" filter="url(#neonGlow)">
    <animate attributeName="opacity" values="0.3;1;0.3" dur="1s" repeatCount="indefinite"/>
  </circle>
  <circle cx="140" cy="85" r="2" fill="#8338ec" filter="url(#neonGlow)">
    <animate attributeName="opacity" values="1;0.3;1" dur="1.2s" repeatCount="indefinite"/>
  </circle>
  <circle cx="80" cy="140" r="2" fill="#3a86ff" filter="url(#neonGlow)">
    <animate attributeName="opacity" values="0.5;1;0.5" dur="0.8s" repeatCount="indefinite"/>
  </circle>
</svg>
