<svg width="800" height="300" viewBox="0 0 800 300" xmlns="http://www.w3.org/2000/svg">
  <defs>
    <linearGradient id="cyberGradient" x1="0%" y1="0%" x2="100%" y2="100%">
      <stop offset="0%" style="stop-color:#ff006e;stop-opacity:1" />
      <stop offset="50%" style="stop-color:#8338ec;stop-opacity:1" />
      <stop offset="100%" style="stop-color:#3a86ff;stop-opacity:1" />
    </linearGradient>
    <filter id="glow">
      <feGaussianBlur stdDeviation="3" result="coloredBlur"/>
      <feMerge> 
        <feMergeNode in="coloredBlur"/>
        <feMergeNode in="SourceGraphic"/>
      </feMerge>
    </filter>
  </defs>
  
  <!-- Background -->
  <rect width="800" height="300" fill="#0a0a0a"/>
  
  <!-- Cyberpunk Cityscape -->
  <rect x="0" y="200" width="800" height="100" fill="#1a1a2e"/>
  
  <!-- Buildings -->
  <rect x="50" y="120" width="40" height="180" fill="#16213e"/>
  <rect x="120" y="80" width="60" height="220" fill="#0f3460"/>
  <rect x="220" y="100" width="50" height="200" fill="#16213e"/>
  <rect x="300" y="60" width="80" height="240" fill="#0f3460"/>
  <rect x="420" y="90" width="45" height="210" fill="#16213e"/>
  <rect x="500" y="70" width="70" height="230" fill="#0f3460"/>
  <rect x="600" y="110" width="55" height="190" fill="#16213e"/>
  <rect x="680" y="85" width="40" height="215" fill="#0f3460"/>
  
  <!-- Neon Lights -->
  <rect x="60" y="140" width="20" height="3" fill="#ff006e" filter="url(#glow)"/>
  <rect x="140" y="100" width="20" height="3" fill="#8338ec" filter="url(#glow)"/>
  <rect x="240" y="120" width="15" height="3" fill="#3a86ff" filter="url(#glow)"/>
  <rect x="320" y="80" width="25" height="3" fill="#ff006e" filter="url(#glow)"/>
  <rect x="440" y="110" width="18" height="3" fill="#8338ec" filter="url(#glow)"/>
  <rect x="520" y="90" width="22" height="3" fill="#3a86ff" filter="url(#glow)"/>
  <rect x="620" y="130" width="16" height="3" fill="#ff006e" filter="url(#glow)"/>
  <rect x="700" y="105" width="14" height="3" fill="#8338ec" filter="url(#glow)"/>
  
  <!-- Circuit Patterns -->
  <path d="M100 50 Q150 30 200 50 Q250 70 300 50" stroke="#ff006e" stroke-width="2" fill="none" opacity="0.6" filter="url(#glow)"/>
  <path d="M400 40 Q450 20 500 40 Q550 60 600 40" stroke="#8338ec" stroke-width="2" fill="none" opacity="0.6" filter="url(#glow)"/>
  
  <!-- Data Streams -->
  <circle cx="150" cy="50" r="3" fill="#3a86ff" filter="url(#glow)">
    <animate attributeName="cy" values="50;30;50" dur="2s" repeatCount="indefinite"/>
  </circle>
  <circle cx="450" cy="40" r="3" fill="#ff006e" filter="url(#glow)">
    <animate attributeName="cy" values="40;20;40" dur="1.5s" repeatCount="indefinite"/>
  </circle>
  <circle cx="650" cy="45" r="3" fill="#8338ec" filter="url(#glow)">
    <animate attributeName="cy" values="45;25;45" dur="2.5s" repeatCount="indefinite"/>
  </circle>
</svg>
